<?xml version="1.0" standalone="no"?>
<!DOCTYPE svg PUBLIC "-//W3C//DTD SVG 20010904//EN"
 "http://www.w3.org/TR/2001/REC-SVG-20010904/DTD/svg10.dtd">
<svg version="1.0" xmlns="http://www.w3.org/2000/svg"
 width="700.000000pt" height="700.000000pt" viewBox="0 0 700.000000 700.000000"
 preserveAspectRatio="xMidYMid meet">
<metadata>
Created by potrace 1.11, written by Peter Selinger 2001-2013
</metadata>
<g transform="translate(0.000000,700.000000) scale(0.100000,-0.100000)"
fill="#000000" stroke="none">
<path d="M3606 6269 c-31 -9 -62 -21 -69 -27 -6 -5 -32 -21 -57 -34 -91 -51
-406 -232 -435 -249 -16 -11 -37 -22 -45 -26 -8 -4 -53 -29 -100 -56 -47 -27
-103 -59 -125 -72 -60 -33 -805 -460 -845 -483 -19 -12 -46 -27 -60 -34 -14
-8 -178 -101 -365 -208 -366 -208 -414 -244 -436 -322 -8 -32 -11 -360 -11
-1263 0 -1321 -2 -1265 53 -1332 20 -25 2038 -1380 2116 -1421 37 -20 113 -29
153 -19 28 7 150 74 517 283 1439 821 1944 1113 1972 1138 18 17 43 51 54 76
20 44 20 61 20 1280 0 1362 4 1275 -61 1344 -23 24 -2044 1379 -2109 1415 -48
25 -108 29 -167 10z"/>
</g>
</svg>
